---
title: Diagrama de clases desde codigo
---

classDiagram
class Persona {
  <<abstract>>
  -String nombre
  -String direccion
  -String telefono
  -String alias
  -String correoElectronico
}

class Alumno {
  -Double notaMedia
}

class Profesor {
  -int NPR
}

class CicloFormativo {
  -String nombre
  -String descripcion
  -int horas
  -CompetenciaProfesional[] infCompeProfesionales
}

class CompetenciaProfesional {
  -String descripcion
  -ModuloFormativo[] infModuFormat
}

class ModuloFormativo {
  -String nombre
  -int duracion
  -String contenido
  -Alumno[] infAlumMatriculados
  -Profesor profesorImparte
  -Examen examen
  -Tarea tarea
}

class Examen {
  -Pregunta[30] preguntas
}

class Pregunta {
  -String enunciado
  -String[] respuestas
  -int respuestaValida
  -Examen[] examenesDondeSeUsa
}

class Tarea {
  -String descripcion
}

Persona <|-- Alumno
Persona <|-- Profesor

CicloFormativo "1" o-- "*" CompetenciaProfesional
CompetenciaProfesional "1" o-- "*" ModuloFormativo

ModuloFormativo "1" o-- "*" Alumno
ModuloFormativo "1" --> "1" Profesor
ModuloFormativo "1" --> "1" Examen
ModuloFormativo "1" --> "1" Tarea

Examen "1" o-- "*" Pregunta
Pregunta "*" --> "*" Examen

```